<svg xmlns="http://www.w3.org/2000/svg" viewBox="0 0 152 32" fill="none" role="img">
  <!-- NivaDesk's own bank glyph. Not a third-party mark: what gets connected is
       the user's own bank, not one brand, so there is nothing to borrow. -->
  <g fill="#0F7B6C">
    <path d="M14 3.2 25.6 9.4a1 1 0 0 1 .53.88V12H1.87v-1.72a1 1 0 0 1 .53-.88L14 3.2Zm0 3.9a2.1 2.1 0 1 0 0 4.2 2.1 2.1 0 0 0 0-4.2Z"/>
    <rect x="4.2" y="14" width="2.9" height="9.6" rx=".7"/>
    <rect x="10.1" y="14" width="2.9" height="9.6" rx=".7"/>
    <rect x="16" y="14" width="2.9" height="9.6" rx=".7"/>
    <rect x="21.9" y="14" width="2.9" height="9.6" rx=".7"/>
    <rect x="1.4" y="25.6" width="25.2" height="3.2" rx="1"/>
  </g>
  <text x="34" y="21.6" font-family="-apple-system, BlinkMacSystemFont, 'Segoe UI', Inter, Helvetica, Arial, sans-serif"
        font-size="15" font-weight="700" letter-spacing="-0.3" fill="#0F7B6C">Open Banking</text>
</svg>
